# xmcd CD database file
#
# Track frame offsets:
#	150
#	29023
#	51471
#	78213
#	107501
#	128100
#	151122
#	178867
#	211801
#
# Disc length: 3089 seconds
#
# Revision: 0
# Processed by: cddbd v1.5.1PL2 Copyright (c) Steve Scherf et al.
# Submitted via: CDex 1.51
#
DISCID=710c0f09
DTITLE=Karen Sharp - Till There Was You
DYEAR=2003
DGENRE=Jazz
TTITLE0=Till There Was You
TTITLE1=Tickle-Toe
TTITLE2=Five o'clock Sharp
TTITLE3=But Beautiful
TTITLE4=All God's Chillun Got Rhythm
TTITLE5=Jump For Joy
TTITLE6=Blue Schmoo
TTITLE7=The Song Is You
TTITLE8=In The Wee Small Hours Of The Morning
EXTD=YEAR: 2003
EXTT0=
EXTT1=
EXTT2=
EXTT3=
EXTT4=
EXTT5=
EXTT6=
EXTT7=
EXTT8=
PLAYORDER=
